<svg xmlns="http://www.w3.org/2000/svg" viewBox="0 0 512 512">
  <defs>
    <linearGradient id="g" x1="0" x2="1" y1="0" y2="1">
      <stop offset="0%" stop-color="#38bdf8" />
      <stop offset="100%" stop-color="#0ea5e9" />
    </linearGradient>
  </defs>
  <rect width="512" height="512" rx="96" fill="#07111f" />
  <rect x="36" y="36" width="440" height="440" rx="84" fill="#0f172a" stroke="#38bdf8" stroke-width="18" />
  <path d="M140 334c43-8 73-23 96-47 21-22 34-48 43-89l51 18c-11 52-29 86-61 120-32 33-72 52-121 61z" fill="url(#g)"/>
  <path d="M315 134c28 0 57 16 57 52 0 28-16 45-35 57-19 12-40 19-56 26-18 8-30 18-34 35h117v48H153c2-45 23-73 57-92 17-10 37-17 54-24 16-7 30-15 30-31 0-13-10-21-24-21-17 0-28 10-38 25l-43-28c23-34 57-47 94-47z" fill="#eff6ff"/>
</svg>
